<?xml version="1.0" encoding="UTF-8" standalone="no"?>
<svg
   xmlns:dc="http://purl.org/dc/elements/1.1/"
   xmlns:cc="http://creativecommons.org/ns#"
   xmlns:rdf="http://www.w3.org/1999/02/22-rdf-syntax-ns#"
   xmlns:svg="http://www.w3.org/2000/svg"
   xmlns="http://www.w3.org/2000/svg"
   xmlns:sodipodi="http://sodipodi.sourceforge.net/DTD/sodipodi-0.dtd"
   xmlns:inkscape="http://www.inkscape.org/namespaces/inkscape"
   width="2270"
   height="2500"
   viewBox="0 0 256 282"
   preserveAspectRatio="xMinYMin meet"
   version="1.1"
   id="svg16"
   sodipodi:docname="nodejs-express-icon.svg"
   inkscape:version="1.0 (4035a4f, 2020-05-01)">
  <metadata
     id="metadata22">
    <rdf:RDF>
      <cc:Work
         rdf:about="">
        <dc:format>image/svg+xml</dc:format>
        <dc:type
           rdf:resource="http://purl.org/dc/dcmitype/StillImage" />
        <dc:title></dc:title>
      </cc:Work>
    </rdf:RDF>
  </metadata>
  <defs
     id="defs20" />
  <sodipodi:namedview
     inkscape:document-rotation="0"
     pagecolor="#ffffff"
     bordercolor="#666666"
     borderopacity="1"
     objecttolerance="10"
     gridtolerance="10"
     guidetolerance="10"
     inkscape:pageopacity="0"
     inkscape:pageshadow="2"
     inkscape:window-width="1462"
     inkscape:window-height="897"
     id="namedview18"
     showgrid="false"
     inkscape:zoom="0.3256"
     inkscape:cx="1135"
     inkscape:cy="881.44963"
     inkscape:window-x="133"
     inkscape:window-y="95"
     inkscape:window-maximized="0"
     inkscape:current-layer="svg16" />
  <g
     fill="#8cc84b"
     id="g14"
     transform="matrix(0.66426084,0,0,0.66426084,45.239352,0.58083317)">
    <path
       d="m 116.504,3.58 c 6.962,-3.985 16.03,-4.003 22.986,0 34.995,19.774 70.001,39.517 104.99,59.303 6.581,3.707 10.983,11.031 10.916,18.614 v 118.968 c 0.049,7.897 -4.788,15.396 -11.731,19.019 -34.88,19.665 -69.742,39.354 -104.616,59.019 -7.106,4.063 -16.356,3.75 -23.24,-0.646 -10.457,-6.062 -20.932,-12.094 -31.39,-18.15 -2.137,-1.274 -4.546,-2.288 -6.055,-4.36 1.334,-1.798 3.719,-2.022 5.657,-2.807 4.365,-1.388 8.374,-3.616 12.384,-5.778 1.014,-0.694 2.252,-0.428 3.224,0.193 8.942,5.127 17.805,10.403 26.777,15.481 1.914,1.105 3.852,-0.362 5.488,-1.274 34.228,-19.345 68.498,-38.617 102.72,-57.968 1.268,-0.61 1.969,-1.956 1.866,-3.345 0.024,-39.245 0.006,-78.497 0.012,-117.742 0.145,-1.576 -0.767,-3.025 -2.192,-3.67 -34.759,-19.575 -69.5,-39.18 -104.253,-58.76 a 3.621,3.621 0 0 0 -4.094,-0.006 C 91.2,39.257 56.465,58.88 21.712,78.454 c -1.42,0.646 -2.373,2.071 -2.204,3.653 0.006,39.245 0,78.497 0,117.748 a 3.329,3.329 0 0 0 1.89,3.303 c 9.274,5.259 18.56,10.481 27.84,15.722 5.228,2.814 11.647,4.486 17.407,2.33 5.083,-1.823 8.646,-7.01 8.549,-12.407 0.048,-39.016 -0.024,-78.038 0.036,-117.048 -0.127,-1.732 1.516,-3.163 3.2,-3 4.456,-0.03 8.918,-0.06 13.374,0.012 1.86,-0.042 3.14,1.823 2.91,3.568 -0.018,39.263 0.048,78.527 -0.03,117.79 0.012,10.464 -4.287,21.85 -13.966,26.97 -11.924,6.177 -26.662,4.867 -38.442,-1.056 -10.198,-5.09 -19.93,-11.097 -29.947,-16.55 C 5.368,215.886 0.555,208.357 0.604,200.466 V 81.497 C 0.531,73.757 5.108,66.3 11.894,62.647 46.768,42.966 81.636,23.27 116.504,3.58 Z"
       id="path10" />
    <path
       d="m 146.928,85.99 c 15.21,-0.979 31.493,-0.58 45.18,6.913 10.597,5.742 16.472,17.793 16.659,29.566 -0.296,1.588 -1.956,2.464 -3.472,2.355 -4.413,-0.006 -8.827,0.06 -13.24,-0.03 -1.872,0.072 -2.96,-1.654 -3.195,-3.309 -1.268,-5.633 -4.34,-11.212 -9.642,-13.929 -8.139,-4.075 -17.576,-3.87 -26.451,-3.785 -6.479,0.344 -13.446,0.905 -18.935,4.715 -4.214,2.886 -5.494,8.712 -3.99,13.404 1.418,3.369 5.307,4.456 8.489,5.458 18.33,4.794 37.754,4.317 55.734,10.626 7.444,2.572 14.726,7.572 17.274,15.366 3.333,10.446 1.872,22.932 -5.56,31.318 -6.027,6.901 -14.805,10.657 -23.56,12.697 -11.647,2.597 -23.734,2.663 -35.562,1.51 -11.122,-1.268 -22.696,-4.19 -31.282,-11.768 -7.342,-6.375 -10.928,-16.308 -10.572,-25.895 0.085,-1.619 1.697,-2.748 3.248,-2.615 4.444,-0.036 8.888,-0.048 13.332,0.006 1.775,-0.127 3.091,1.407 3.182,3.08 0.82,5.367 2.837,11 7.517,14.182 9.032,5.827 20.365,5.428 30.707,5.591 8.568,-0.38 18.186,-0.495 25.178,-6.158 3.689,-3.23 4.782,-8.634 3.785,-13.283 -1.08,-3.925 -5.186,-5.754 -8.712,-6.95 -18.095,-5.724 -37.736,-3.647 -55.656,-10.12 -7.275,-2.571 -14.31,-7.432 -17.105,-14.906 -3.9,-10.578 -2.113,-23.662 6.098,-31.765 8.006,-8.06 19.563,-11.164 30.551,-12.275 z"
       id="path12" />
  </g>
  <path
     style="stroke-width:0.496447"
     d="M 3.0266833,265.56764 V 237.27962 H 38.34588 v -1.65465 H 3.0266833 v -25.8068 H 40.578904 v -1.65415 H 1.3725265 v 59.05779 H 40.909537 v -1.65417 H 3.0271793 Z M 72.755093,224.70661 58.114882,243.97916 43.804809,224.70711 h -2.150604 l 15.467786,20.51317 -16.957122,22.00102 h 1.985287 l 15.963736,-20.76139 16.046642,20.76139 h 2.067705 L 59.189192,245.21929 74.739397,224.70611 h -1.984798 z m 8.436617,57.07299 v -26.46804 h 0.165318 c 0.99289,3.85987 2.950379,6.96165 5.87296,9.30538 2.922584,2.34324 6.644446,3.51534 11.166077,3.51534 2.922585,0 5.514535,-0.59275 7.775345,-1.77827 2.26082,-1.1855 4.1493,-2.79847 5.66596,-4.83886 1.51614,-2.04039 2.67436,-4.41143 3.47412,-7.11358 0.79929,-2.70167 1.19942,-5.54183 1.19942,-8.51903 0,-3.19861 -0.41403,-6.14899 -1.24111,-8.85065 -0.82709,-2.70215 -2.0265,-5.04588 -3.59776,-7.03067 -1.57174,-1.9853 -3.47413,-3.52975 -5.70765,-4.63185 -2.23301,-1.10311 -4.75595,-1.65466 -7.568325,-1.65466 -2.150604,0 -4.149302,0.31723 -5.996574,0.95119 -1.847279,0.63447 -3.487537,1.53006 -4.92128,2.68825 a 18.206684,18.206684 0 0 0 -3.722358,4.09419 c -1.047495,1.57177 -1.847272,3.29494 -2.398825,5.17001 H 81.19171 v -11.91174 h -1.654157 v 57.07299 z m 17.204355,-15.21955 c -5.182898,0 -9.346593,-1.77828 -12.4896,-5.33482 -3.143008,-3.55655 -4.714755,-8.67144 -4.714755,-15.34368 0,-2.75726 0.386238,-5.37652 1.158208,-7.85776 0.77198,-2.48124 1.888482,-4.65965 3.349526,-6.53424 1.461537,-1.87506 3.267618,-3.36391 5.417725,-4.46652 2.150603,-1.10311 4.577235,-1.65465 7.278896,-1.65465 2.757265,0 5.169995,0.55154 7.237695,1.65465 2.06771,1.10261 3.77747,2.60535 5.12829,4.50773 1.35084,1.90239 2.37104,4.0808 3.06061,6.53425 0.68907,2.45392 1.0336,5.05928 1.0336,7.81654 0,2.48173 -0.31673,4.94958 -0.95119,7.40301 -0.63397,2.45394 -1.61296,4.65964 -2.93648,6.61763 -1.32303,1.95699 -3.01841,3.55606 -5.08661,4.79717 -2.0682,1.24061 -4.56333,1.86069 -7.485915,1.86069 z m 27.213225,0.66176 v -24.06972 c 0,-2.31593 0.33063,-4.57725 0.9929,-6.78246 0.66127,-2.2057 1.68146,-4.14979 3.0601,-5.83127 1.37864,-1.68194 3.1291,-3.00549 5.2524,-3.97057 2.1228,-0.9651 4.64574,-1.36473 7.56834,-1.19941 v -1.65417 c -2.53685,-0.0546 -4.75597,0.22043 -6.65834,0.82708 -1.90289,0.60666 -3.54316,1.43375 -4.92179,2.48174 -1.37861,1.04751 -2.48124,2.27422 -3.30832,3.68066 a 16.457205,16.457205 0 0 0 -1.81997,4.50774 h -0.16532 v -10.50482 h -1.65416 v 42.51569 h 1.65416 z m 18.94143,-20.92672 h 35.56694 c 0.11069,-2.92258 -0.17872,-5.73446 -0.86829,-8.43662 -0.68908,-2.70215 -1.79218,-5.10099 -3.30832,-7.19598 -1.51664,-2.09551 -3.47414,-3.77747 -5.87298,-5.04589 -2.39883,-1.26842 -5.2524,-1.90239 -8.56073,-1.90239 -2.37151,0 -4.68744,0.49645 -6.94826,1.48934 -2.26082,0.99241 -4.2461,2.43955 -5.95537,4.34192 -1.70926,1.90238 -3.08789,4.23221 -4.1354,6.98997 -1.0475,2.75678 -1.57175,5.89978 -1.57175,9.42902 0,3.14299 0.35843,6.07949 1.0753,8.80895 0.71686,2.72947 1.81947,5.10099 3.30833,7.11357 1.48934,2.0126 3.40561,3.57045 5.74886,4.67307 2.34321,1.10309 5.16947,1.62685 8.47829,1.57174 4.85227,0 8.93307,-1.36523 12.24141,-4.09418 3.3088,-2.72998 5.26628,-6.57594 5.87294,-11.53893 h -1.65415 c -0.71687,4.68745 -2.55075,8.2028 -5.50063,10.54603 -2.95038,2.34372 -6.65834,3.51534 -11.12537,3.51534 -3.0328,0 -5.59694,-0.52376 -7.69244,-1.57126 -2.095,-1.0475 -3.80477,-2.48174 -5.12831,-4.30122 -1.32302,-1.81997 -2.30201,-3.95668 -2.93596,-6.41061 -0.63447,-2.45345 -0.97899,-5.1144 -1.03411,-7.98187 z m 33.91276,-1.65416 h -33.91226 c 0.16482,-2.97769 0.71638,-5.65204 1.65365,-8.02308 0.9378,-2.37152 2.16451,-4.39801 3.68116,-6.07949 1.51614,-1.68194 3.28102,-2.96378 5.29361,-3.84645 2.0126,-0.8822 4.17711,-1.32353 6.49303,-1.32353 2.75727,0 5.1829,0.51034 7.2789,1.53053 2.095,1.02021 3.84598,2.41275 5.2524,4.17712 1.40595,1.76436 2.46734,3.81866 3.18421,6.1619 0.71688,2.34371 1.0753,4.81156 1.0753,7.403 z m 35.98098,-7.36131 h 1.65415 c 0,-4.74255 -1.37863,-8.18889 -4.1354,-10.33949 -2.75778,-2.15061 -6.50742,-3.22592 -11.24949,-3.22592 -2.64705,0 -4.88005,0.33112 -6.70003,0.9929 -1.81947,0.66127 -3.30833,1.51614 -4.46653,2.56364 -1.1577,1.04751 -1.98479,2.20572 -2.48125,3.47415 -0.49644,1.2684 -0.74466,2.48173 -0.74466,3.63944 0,2.31593 0.41354,4.1632 1.24112,5.54184 0.82709,1.37864 2.1228,2.45393 3.88716,3.22591 1.21332,0.55104 2.59146,1.0475 4.13591,1.48934 1.54395,0.44084 3.33611,0.90949 5.37651,1.40544 1.81948,0.44182 3.61164,0.88267 5.37651,1.32352 1.76438,0.44134 3.32223,1.03411 4.67306,1.77827 1.35132,0.74467 2.45395,1.69586 3.30882,2.85408 0.85439,1.15771 1.28184,2.67435 1.28184,4.54894 0,1.81997 -0.42697,3.36392 -1.28184,4.63185 a 10.333537,10.333537 0 0 1 -3.2671,3.10229 c -1.32355,0.79928 -2.79899,1.37814 -4.42534,1.73656 -1.62686,0.35845 -3.21202,0.53767 -4.75596,0.53767 -5.01807,0 -8.86456,-1.11652 -11.53892,-3.34954 -2.67434,-2.23351 -4.01129,-5.74884 -4.01129,-10.54651 h -1.65465 c 0,5.34921 1.44765,9.26419 4.34242,11.74593 2.89528,2.48123 7.18258,3.72186 12.86244,3.72186 1.81948,0 3.65284,-0.20701 5.50064,-0.62055 1.84677,-0.41355 3.50142,-1.08871 4.96248,-2.0265 a 11.215723,11.215723 0 0 0 3.55654,-3.63896 c 0.90997,-1.48933 1.36521,-3.30882 1.36521,-5.45942 0,-2.04039 -0.40012,-3.69455 -1.1994,-4.96297 -0.79979,-1.26794 -1.84729,-2.31594 -3.14349,-3.14301 -1.29575,-0.82708 -2.75679,-1.47494 -4.38364,-1.9436 a 256.20617,256.20617 0 0 0 -4.92175,-1.36522 857.20197,857.20197 0 0 0 -6.07951,-1.57126 c -1.73657,-0.44133 -3.34952,-0.96508 -4.83837,-1.57173 -1.43374,-0.60668 -2.57805,-1.47495 -3.43292,-2.60537 -0.85488,-1.13041 -1.28182,-2.74336 -1.28182,-4.83886 0,-0.38574 0.11022,-1.07531 0.33062,-2.06771 0.22042,-0.99288 0.74468,-1.99919 1.57175,-3.01938 0.82708,-1.0197 2.09502,-1.92968 3.80476,-2.72946 1.70928,-0.79928 4.053,-1.19941 7.03068,-1.19941 2.04041,0 3.90109,0.22092 5.58306,0.66176 1.68196,0.44133 3.12958,1.14431 4.34239,2.1094 1.21334,0.96509 2.15063,2.19182 2.81238,3.68065 0.66177,1.48934 0.99291,3.30882 0.99291,5.45943 z m 38.29636,0 h 1.65418 c 0,-4.74255 -1.37813,-8.18889 -4.13541,-10.33949 -2.75726,-2.15061 -6.50692,-3.22592 -11.24946,-3.22592 -2.64657,0 -4.88009,0.33112 -6.69957,0.9929 -1.81997,0.66127 -3.30879,1.51614 -4.46652,2.56364 -1.15822,1.04751 -1.98529,2.20572 -2.48174,3.47415 -0.49644,1.2684 -0.74417,2.48173 -0.74417,3.63944 0,2.31593 0.41354,4.1632 1.24111,5.54184 0.82658,1.37864 2.12282,2.45393 3.88718,3.22591 1.21332,0.55104 2.59146,1.0475 4.1354,1.48934 1.54395,0.44084 3.33613,0.90949 5.37653,1.40544 1.81996,0.44182 3.61213,0.88267 5.37652,1.32352 1.76486,0.44134 3.3222,1.03411 4.67353,1.77827 1.35084,0.74467 2.45395,1.69586 3.30832,2.85408 0.85489,1.15771 1.28234,2.67435 1.28234,4.54894 0,1.81997 -0.42745,3.36392 -1.28234,4.63185 a 10.333537,10.333537 0 0 1 -3.2666,3.10229 c -1.32404,0.79928 -2.79899,1.37814 -4.42583,1.73656 -1.62636,0.35845 -3.21201,0.53767 -4.75597,0.53767 -5.01807,0 -8.86405,-1.11652 -11.53841,-3.34954 -2.67485,-2.23351 -4.01178,-5.74884 -4.01178,-10.54651 h -1.65417 c 0,5.34921 1.44715,9.26419 4.34242,11.74593 2.89478,2.48123 7.18211,3.72186 12.86194,3.72186 1.81997,0 3.65335,-0.20701 5.50063,-0.62055 1.84679,-0.41355 3.50145,-1.08871 4.96299,-2.0265 a 11.215723,11.215723 0 0 0 3.55654,-3.63896 c 0.90997,-1.48933 1.36472,-3.30882 1.36472,-5.45942 0,-2.04039 -0.39962,-3.69455 -1.19939,-4.96297 -0.7993,-1.26794 -1.84681,-2.31594 -3.14301,-3.14301 -1.29573,-0.82708 -2.75728,-1.47494 -4.38363,-1.9436 a 256.2017,256.2017 0 0 0 -4.92177,-1.36522 857.18957,857.18957 0 0 0 -6.0795,-1.57126 c -1.73706,-0.44133 -3.35003,-0.96508 -4.83886,-1.57173 -1.43373,-0.60668 -2.57806,-1.47495 -3.43241,-2.60537 -0.8549,-1.13041 -1.28234,-2.74336 -1.28234,-4.83886 0,-0.38574 0.1102,-1.07531 0.33112,-2.06771 0.22044,-0.99288 0.74468,-1.99919 1.57126,-3.01938 0.8271,-1.0197 2.09551,-1.92968 3.80477,-2.72946 1.70976,-0.79928 4.05299,-1.19941 7.03117,-1.19941 2.04041,0 3.90109,0.22092 5.58305,0.66176 1.68196,0.44133 3.1291,1.14431 4.3424,2.1094 1.21333,0.96509 2.15063,2.19182 2.81237,3.68065 0.66177,1.48934 0.99291,3.30882 0.99291,5.45943 z"
     fill="#222222"
     id="path24" />
</svg>
