<?xml version="1.0" encoding="UTF-8" standalone="no"?>
<svg
   xmlns:dc="http://purl.org/dc/elements/1.1/"
   xmlns:cc="http://creativecommons.org/ns#"
   xmlns:rdf="http://www.w3.org/1999/02/22-rdf-syntax-ns#"
   xmlns:svg="http://www.w3.org/2000/svg"
   xmlns="http://www.w3.org/2000/svg"
   xmlns:sodipodi="http://sodipodi.sourceforge.net/DTD/sodipodi-0.dtd"
   xmlns:inkscape="http://www.inkscape.org/namespaces/inkscape"
   inkscape:version="1.0 (4035a4f, 2020-05-01)"
   sodipodi:docname="ios.svg"
   id="svg72"
   version="1.1"
   xml:space="preserve"
   width="5.5642638in"
   viewBox="0 0 5.5642637 6.7818721"
   style="clip-rule:evenodd;fill-rule:evenodd;image-rendering:optimizeQuality;shape-rendering:geometricPrecision;text-rendering:geometricPrecision"
   height="6.7818723in"><metadata
     id="metadata76"><rdf:RDF><cc:Work
         rdf:about=""><dc:format>image/svg+xml</dc:format><dc:type
           rdf:resource="http://purl.org/dc/dcmitype/StillImage" /></cc:Work></rdf:RDF></metadata><sodipodi:namedview
     inkscape:current-layer="svg72"
     inkscape:window-maximized="1"
     inkscape:window-y="23"
     inkscape:window-x="0"
     inkscape:cy="420.21105"
     inkscape:cx="340.82358"
     inkscape:zoom="0.90201085"
     showgrid="false"
     id="namedview74"
     inkscape:window-height="980"
     inkscape:window-width="1920"
     inkscape:pageshadow="2"
     inkscape:pageopacity="0"
     guidetolerance="10"
     gridtolerance="10"
     objecttolerance="10"
     borderopacity="1"
     bordercolor="#666666"
     pagecolor="#ffffff" /><defs
     id="defs65"><style
       id="style63"
       type="text/css">
   <![CDATA[
    .fil1 {fill:none}
    .fil0 {fill:#212121;fill-rule:nonzero}
   ]]>
  </style></defs><g
     transform="matrix(1.3523214,0,0,1.3523214,-1.842614,-1.2236439)"
     id="Layer_x0020_1"><path
       id="path67"
       d="M 4.69945,3.56751 C 4.6940209,3.021364 5.070096,2.713616 5.206607,2.618896 5.1072015,2.487959 4.991233,2.397798 4.876808,2.335786 4.674253,2.22601 4.476698,2.203723 4.383021,2.199802 l -0.00313,-2.087e-4 c -0.220807,-0.022354 -0.441,0.064457 -0.620917,0.13539 -0.122815,0.048421 -0.228173,0.089961 -0.313398,0.089961 -0.093358,0 -0.201673,-0.042988 -0.323252,-0.091232 C 2.974734,2.2751407 2.806045,2.2081996 2.636883,2.2112666 h -2.086e-4 c -0.197839,0.00293 -0.388122,0.060347 -0.55463,0.161264 -0.168028,0.101839 -0.311862,0.247992 -0.414913,0.42722 -0.18811,0.326421 -0.228539,0.725433 -0.178913,1.12002 0.061276,0.487189 0.259567,0.966252 0.487567,1.29547 0.101362,0.14661 0.212354,0.302146 0.33622,0.418185 0.11787,0.110429 0.247728,0.185106 0.39239,0.179811 v -7.8e-6 c 0.13428,-0.00535 0.232508,-0.047205 0.334075,-0.090472 0.127559,-0.054342 0.25998,-0.110756 0.47187,-0.110756 0.202504,0 0.329362,0.054898 0.45135,0.107681 0.10622,0.045961 0.208402,0.090173 0.357823,0.087366 0.151882,-0.00282 0.277283,-0.073083 0.38863,-0.177213 0.115764,-0.108264 0.218248,-0.255106 0.319091,-0.402406 0.185756,-0.271445 0.283925,-0.535843 0.31852,-0.638921 -0.152894,-0.07413 -0.640559,-0.360933 -0.646303,-1.02099 z M 5.306824,2.680219 c -0.04752,0.029402 -0.506815,0.313602 -0.501122,0.886457 0.00601,0.690606 0.591579,0.930008 0.623902,0.94322 h 2.087e-4 l 0.0014,5.787e-4 0.045945,0.019024 -0.015736,0.047016 c -9.331e-4,0.00279 1.26e-4,-1.771e-4 -0.00124,0.0042 -0.014941,0.04787 -0.116228,0.372358 -0.345035,0.706713 -0.103827,0.151661 -0.20961,0.303094 -0.334508,0.419902 -0.129319,0.120941 -0.277008,0.202579 -0.459457,0.205969 -0.171965,0.00323 -0.284547,-0.045484 -0.401579,-0.096122 -0.111594,-0.048287 -0.22765,-0.098508 -0.409264,-0.098508 -0.19078,0 -0.312732,0.051953 -0.430201,0.102 -0.110575,0.047106 -0.217516,0.092665 -0.371579,0.098811 H 2.7083511 C 2.5304531,5.9260823 2.3761901,5.8393618 2.2390911,5.710917 2.1079261,5.588035 1.9930081,5.427118 1.8882881,5.275653 1.6518981,4.934322 1.4463161,4.437681 1.3828001,3.932683 1.330556,3.517297 1.3742253,3.095329 1.5750521,2.746843 1.6871621,2.551859 1.8438511,2.392733 2.0270441,2.281701 2.2094021,2.171177 2.4180401,2.10828 2.6352131,2.105024 v -3.9e-6 c 0.190134,-0.00345 0.369409,0.067697 0.52628,0.129949 0.11102,0.044055 0.209933,0.083311 0.284087,0.083311 0.065512,0 0.162079,-0.038075 0.27465,-0.082457 0.190122,-0.074957 0.422717,-0.16665 0.668661,-0.142193 0.103287,0.00449 0.318421,0.029232 0.538335,0.148413 0.140094,0.075925 0.282193,0.189913 0.399004,0.36087 l 0.030799,0.045083 -0.046008,0.029709 c -0.00246,0.00159 -6.69e-5,-3.15e-5 -0.0042,0.00252 z M 4.093814,1.70968 C 4.179306,1.605936 4.250271,1.481097 4.294204,1.346271 4.32859,1.240736 4.346267,1.129259 4.341145,1.017302 4.239724,1.029605 4.130834,1.065711 4.027385,1.118908 3.905381,1.181644 3.791905,1.267699 3.70785,1.36616 l -2.087e-4,2.087e-4 c -0.081709,0.094646 -0.158008,0.220016 -0.205323,0.35789 -0.034784,0.10135 -0.053669,0.208953 -0.047035,0.31513 0.106642,1.968e-4 0.213657,-0.028071 0.313067,-0.075488 0.126516,-0.06035 0.240236,-0.151366 0.325362,-0.254303 z M 4.395456,1.379184 C 4.3473694,1.526763 4.269566,1.663542 4.175791,1.777302 v 2.087e-4 C 4.081173,1.8919237 3.954787,1.9930817 3.814185,2.0601527 3.685142,2.1217077 3.543689,2.1548577 3.402929,2.1438847 L 3.35985,2.1405247 3.35418,2.0976307 C 3.335893,1.9592997 3.35701,1.8192647 3.401487,1.6896737 3.453243,1.5388707 3.537078,1.4012717 3.627034,1.2970087 l -1.58e-5,-1.58e-5 c 0.093091,-0.109047 0.217929,-0.203925 0.351622,-0.272669 0.134146,-0.0689803 0.278217,-0.11211396 0.409343,-0.11745696 l 0.049567,-0.00202 0.00543,0.0495197 C 4.4588623,1.0991963 4.4395473,1.2438653 4.395456,1.379184 Z"
       class="fil0" /></g><rect
     y="-0.027177881"
     x="-0.028822547"
     id="rect70"
     width="6.8266602"
     height="6.8266602"
     class="fil1" /></svg>
