<?xml version="1.0" encoding="utf-8"?>
<!-- Generator: Adobe Illustrator 22.1.0, SVG Export Plug-In . SVG Version: 6.00 Build 0)  -->
<svg version="1.1" id="Layer_1" xmlns="http://www.w3.org/2000/svg" xmlns:xlink="http://www.w3.org/1999/xlink" x="0px" y="0px"
	 viewBox="0 0 100 100" style="enable-background:new 0 0 100 100;" xml:space="preserve">
<style type="text/css">
	.st0{fill:none;stroke:#00A0DF;stroke-width:2.25;stroke-miterlimit:10;}
	.st1{fill:none;stroke:#00A0DF;stroke-width:2.25;stroke-linecap:round;stroke-linejoin:round;}
	.st2{fill:#00A0DF;}
	.st3{fill:none;stroke:#00A0DF;stroke-width:2.02;stroke-linecap:round;stroke-linejoin:round;}
</style>
<title>MS_Iconography_MS_Core_Blue</title>
<circle class="st0" cx="50" cy="50" r="47.5"/>
<path class="st1" d="M64.1,33.1c-1.6-2.8-4.6-4.6-7.8-4.6c-0.9,0-1.8,0.1-2.6,0.4c-4.8-4.3-12.1-3.9-16.4,0.9
	c-1.3,1.4-2.2,3.1-2.6,4.9c-4.5,0.6-7.6,4.8-7,9.3c0.6,4,3.9,7,8,7.1h27.8c5,0.2,9.2-3.7,9.4-8.6C73,37.5,69.1,33.3,64.1,33.1
	L64.1,33.1z"/>
<rect x="28.3" y="58.8" class="st1" width="43.4" height="12.6"/>
<line class="st1" x1="33.4" y1="65.1" x2="48.4" y2="65.1"/>
<line class="st1" x1="64.6" y1="65.1" x2="65.2" y2="65.1"/>
<circle class="st2" cx="41.7" cy="41.8" r="2.3"/>
<circle class="st2" cx="50" cy="41.8" r="3.6"/>
<circle class="st2" cx="58.3" cy="41.8" r="2.3"/>
<line class="st3" x1="50" y1="41.8" x2="50" y2="58.1"/>
</svg>
