<?xml version="1.0" encoding="UTF-8"?>
<!DOCTYPE svg PUBLIC "-//W3C//DTD SVG 1.1//EN" "http://www.w3.org/Graphics/SVG/1.1/DTD/svg11.dtd">
<!-- Creator: CorelDRAW X6 -->
<svg xmlns="http://www.w3.org/2000/svg" xml:space="preserve" width="16.5354in" height="11.6929in" version="1.1" style="shape-rendering:geometricPrecision; text-rendering:geometricPrecision; image-rendering:optimizeQuality; fill-rule:evenodd; clip-rule:evenodd"
viewBox="0 0 16535 11693"
 xmlns:xlink="http://www.w3.org/1999/xlink">
 <defs>
  <style type="text/css">
   <![CDATA[
    .fil0 {fill:#1376BC}
    .fil1 {fill:#26AAE1}
    .fil5 {fill:#58585A}
    .fil2 {fill:#7E9FD3}
    .fil3 {fill:#8CC6EC}
    .fil4 {fill:#58585A;fill-rule:nonzero}
   ]]>
  </style>
    <mask id="id0">
  <linearGradient id="id1" gradientUnits="userSpaceOnUse" x1="11080.4" y1="5440.67" x2="10250.2" y2="5708.64">
   <stop offset="0" style="stop-opacity:1; stop-color:white"/>
   <stop offset="1" style="stop-opacity:0; stop-color:white"/>
  </linearGradient>
     <rect style="fill:url(#id1)" x="9371" y="4123" width="2589" height="2904"/>
    </mask>
    <mask id="id2">
  <linearGradient id="id3" gradientUnits="userSpaceOnUse" x1="6753.64" y1="5242.38" x2="6767.11" y2="4956.56">
   <stop offset="0" style="stop-opacity:1; stop-color:white"/>
   <stop offset="1" style="stop-opacity:0; stop-color:white"/>
  </linearGradient>
     <rect style="fill:url(#id3)" x="6557" y="4086" width="407" height="2027"/>
    </mask>
    <mask id="id4">
  <linearGradient id="id5" gradientUnits="userSpaceOnUse" x1="8358.22" y1="5154.79" x2="8350.18" y2="4870.9">
   <stop offset="0" style="stop-opacity:1; stop-color:white"/>
   <stop offset="1" style="stop-opacity:0; stop-color:white"/>
  </linearGradient>
     <rect style="fill:url(#id5)" x="8151" y="3835" width="407" height="2356"/>
    </mask>
    <mask id="id6">
  <linearGradient id="id7" gradientUnits="userSpaceOnUse" x1="9950.87" y1="4653.24" x2="9945.2" y2="4358.96">
   <stop offset="0" style="stop-opacity:1; stop-color:white"/>
   <stop offset="1" style="stop-opacity:0; stop-color:white"/>
  </linearGradient>
     <rect style="fill:url(#id7)" x="9753" y="3038" width="390" height="2937"/>
    </mask>
 </defs>
 <g id="Layer_x0020_1">
  <metadata id="CorelCorpID_0Corel-Layer"/>
  <g id="_353632608">
   <path class="fil0" d="M10336 3623c215,18 1220,515 1220,1192 0,643 -841,1082 -1354,1251 -1382,455 -3052,489 -4442,28 -536,-178 -1280,-556 -1410,-1112l-36 103c174,1857 2939,2214 3916,2170 1082,0 2604,-336 3292,-1032 495,-501 701,-1015 300,-1673 -92,-151 -267,-318 -398,-434 -211,-187 -775,-502 -1088,-575l0 83z"/>
   <path class="fil1" d="M9311 1876l0 4269c332,-76 627,-114 915,-249l0 -4574 -915 554z"/>
   <path class="fil0" d="M7703 2985l0 3271c305,0 609,1 914,1l1 -3910 -899 587c-15,10 -15,32 -15,50z"/>
   <path class="fil0" d="M6123 4011l0 2020c336,113 524,142 915,170l0 -2827 -896 581c-18,11 -19,36 -19,56z"/>
   <path class="fil2" style="mask:url(#id0)" d="M9392 7026c2449,-358 3289,-2032 1893,-2904 1219,1122 75,2286 -1914,2749l21 155z"/>
   <polygon class="fil2" style="mask:url(#id2)" points="6557,4086 6557,6070 6964,6113 6964,4086 "/>
   <polygon class="fil2" style="mask:url(#id4)" points="8558,6188 8151,6191 8151,3835 8558,3835 "/>
   <polygon class="fil3" style="mask:url(#id6)" points="9762,3038 9753,5974 10143,5836 10143,3038 "/>
   <path class="fil4" d="M4091 10282l0 49 -325 0 0 -445 319 0 0 49 -255 0 0 141 202 0 0 45 -202 0 0 161 262 0zm511 -101l58 11c-27,98 -90,147 -186,147 -64,0 -113,-23 -150,-68 -36,-45 -54,-101 -54,-168 0,-69 19,-124 57,-165 38,-42 88,-62 152,-62 94,0 155,48 182,143l-60 10c-22,-71 -62,-106 -122,-106 -44,0 -79,16 -103,49 -24,33 -37,79 -37,139 0,55 12,98 37,131 25,33 58,49 99,49 64,0 106,-37 127,-111zm433 159c-65,0 -115,-22 -151,-67 -36,-44 -54,-99 -54,-164 0,-67 19,-123 57,-167 38,-44 88,-66 150,-66 62,0 112,22 150,65 38,43 56,98 56,163 0,63 -18,118 -55,165 -36,47 -87,70 -153,70zm2 -45c44,0 78,-18 103,-53 25,-36 37,-81 37,-137 0,-57 -13,-102 -39,-134 -26,-32 -60,-48 -102,-48 -43,0 -77,17 -103,52 -25,35 -38,80 -38,136 0,55 13,99 38,133 26,34 60,51 103,51zm909 36l-61 0 0 -388 -163 388 -43 0 -165 -388 0 388 -54 0 0 -445 94 0 151 355 148 -355 92 0 0 445zm734 0l-61 0 0 -388 -163 388 -43 0 -165 -388 0 388 -54 0 0 -445 94 0 151 355 148 -355 92 0 0 445zm574 -49l0 49 -325 0 0 -445 319 0 0 49 -255 0 0 141 202 0 0 45 -202 0 0 161 262 0zm572 49l-66 0 -92 -193 -144 0 0 193 -59 0 0 -445 198 0c54,0 94,13 119,39 26,26 39,54 39,85 0,24 -7,46 -22,68 -14,22 -38,37 -72,47l99 206zm-303 -238l131 0c35,0 60,-8 77,-24 17,-16 26,-36 26,-59 0,-24 -9,-42 -27,-55 -18,-13 -41,-20 -68,-20l-139 0 0 158zm818 89l58 11c-27,98 -90,147 -186,147 -64,0 -113,-23 -150,-68 -36,-45 -54,-101 -54,-168 0,-69 19,-124 57,-165 38,-42 88,-62 152,-62 94,0 155,48 182,143l-60 10c-22,-71 -62,-106 -122,-106 -44,0 -79,16 -103,49 -24,33 -37,79 -37,139 0,55 12,98 37,131 25,33 58,49 99,49 64,0 106,-37 127,-111zm585 101l0 49 -325 0 0 -445 319 0 0 49 -255 0 0 141 202 0 0 45 -202 0 0 161 262 0zm861 49l-64 0 -50 -130 -188 0 -45 130 -53 0 164 -445 73 0 164 445zm-128 -172l-79 -213 -78 213 157 0zm668 -52l0 231 -39 0 -17 -56c-31,39 -77,58 -138,58 -66,0 -118,-22 -155,-66 -37,-44 -55,-98 -55,-161 0,-67 20,-124 59,-169 39,-45 92,-68 159,-68 92,0 153,43 181,129l-60 13c-9,-33 -25,-57 -48,-72 -24,-15 -49,-23 -77,-23 -49,0 -86,18 -109,53 -24,35 -35,80 -35,133 0,58 13,103 40,135 26,33 62,49 108,49 35,0 65,-10 88,-31 24,-21 35,-49 35,-86 0,-7 0,-15 -1,-24l-125 0 0 -47 189 0zm564 175l0 49 -325 0 0 -445 319 0 0 49 -255 0 0 141 202 0 0 45 -202 0 0 161 262 0zm581 49l-61 0 -259 -387 1 29c1,11 1,20 1,28l0 330 -51 0 0 -445 79 0 242 362 -1 -31c-1,-12 -1,-23 -1,-32l0 -299 50 0 0 445zm549 -149l58 11c-27,98 -90,147 -186,147 -64,0 -113,-23 -150,-68 -36,-45 -54,-101 -54,-168 0,-69 19,-124 57,-165 38,-42 88,-62 152,-62 94,0 155,48 182,143l-60 10c-22,-71 -62,-106 -122,-106 -44,0 -79,16 -103,49 -24,33 -37,79 -37,139 0,55 12,98 37,131 25,33 58,49 99,49 64,0 106,-37 127,-111zm589 -295l-168 258 0 187 -63 0 0 -187 -168 -258 74 0 134 205 134 -205 58 0z"/>
   <polygon class="fil4" points="2901,8385 2901,8670 2352,8670 2352,8385 "/>
   <polygon class="fil4" points="3681,7698 3681,9358 3243,9358 3243,7698 "/>
   <polygon class="fil4" points="5020,7698 5020,9358 4637,9358 4410,8603 4410,9358 4044,9358 4044,7698 4410,7698 4654,8445 4654,7698 "/>
   <polygon class="fil4" points="6264,7698 6264,8029 6006,8029 6006,9358 5568,9358 5568,8029 5309,8029 5309,7698 "/>
   <polygon class="fil4" points="6551,7698 7281,7698 7281,8029 6990,8029 6990,8346 7262,8346 7262,8661 6990,8661 6990,9026 7311,9026 7311,9358 6551,9358 "/>
   <path class="fil4" d="M8625 8311l-438 0 0 -151c0,-95 -4,-155 -12,-178 -8,-24 -28,-36 -58,-36 -26,0 -44,10 -54,31 -10,20 -14,73 -14,158l0 796c0,74 5,123 14,147 10,23 28,35 57,35 31,0 52,-13 63,-40 11,-27 17,-79 17,-156l0 -197 -85 0 0 -252 511 0 0 890 -275 0 -40 -119c-30,51 -67,90 -112,116 -45,26 -99,39 -160,39 -73,0 -142,-17 -206,-53 -64,-35 -112,-79 -145,-131 -33,-52 -54,-106 -62,-163 -8,-57 -12,-143 -12,-257l0 -493c0,-158 9,-274 26,-345 17,-72 67,-138 149,-198 82,-60 188,-90 318,-90 128,0 234,26 318,78 84,52 140,114 165,185 26,72 38,175 38,312l0 72z"/>
   <path class="fil4" d="M8983 7698l310 0c206,0 346,8 419,23 73,16 133,56 179,121 46,64 69,168 69,309 0,129 -16,216 -49,260 -32,44 -96,71 -192,80 87,21 145,50 175,85 30,35 48,68 55,98 7,30 11,112 11,246l0 438 -406 0 0 -552c0,-89 -7,-144 -21,-165 -14,-21 -51,-32 -111,-32l0 749 -438 0 0 -1660zm438 283l0 369c49,0 83,-7 102,-20 19,-13 29,-57 29,-130l0 -91c0,-53 -10,-87 -28,-104 -19,-16 -54,-24 -104,-24z"/>
   <path class="fil4" d="M11071 7698l250 1660 -447 0 -24 -298 -158 0 -24 298 -453 0 222 -1660 633 0zm-232 1068c-21,-188 -43,-421 -66,-699 -43,319 -71,552 -82,699l149 0z"/>
   <polygon class="fil4" points="12347,7698 12347,8029 12090,8029 12090,9358 11652,9358 11652,8029 11392,8029 11392,7698 "/>
   <polygon class="fil4" points="13073,7698 13073,9358 12635,9358 12635,7698 "/>
   <path class="fil4" d="M14433 8671c0,167 -4,285 -12,354 -8,70 -33,133 -74,190 -42,57 -99,101 -170,132 -71,31 -154,46 -249,46 -90,0 -171,-15 -242,-44 -72,-29 -129,-72 -173,-130 -44,-58 -69,-121 -78,-190 -8,-69 -12,-188 -12,-359l0 -284c0,-167 4,-285 12,-354 8,-70 33,-133 74,-190 42,-57 99,-101 170,-132 71,-31 154,-46 249,-46 90,0 171,15 242,44 72,29 129,72 173,130 44,58 69,121 78,190 8,69 12,188 12,359l0 284zm-438 -545c0,-77 -4,-126 -13,-148 -9,-21 -26,-32 -52,-32 -22,0 -39,9 -51,26 -12,17 -18,69 -18,154l0 775c0,96 4,156 12,178 8,23 26,34 54,34 29,0 48,-13 56,-39 8,-26 12,-88 12,-185l0 -763z"/>
   <polygon class="fil4" points="15761,7698 15761,9358 15378,9358 15151,8603 15151,9358 14785,9358 14785,7698 15151,7698 15395,8445 15395,7698 "/>
   <path class="fil5" d="M774 9286l0 -1660c2,-68 61,-126 125,-128l189 0c70,2 114,29 125,85l112 728c13,131 128,145 151,0l98 -735c10,-34 32,-60 72,-72l269 0c48,0 83,16 98,59l0 1708c-1,28 -13,46 -38,50l-218 0c-20,-2 -31,-12 -33,-31l-6 -363c11,-95 -103,-130 -123,-9l-64 354c-6,37 -23,58 -60,56l-161 0c-35,3 -51,-6 -56,-51l-85 -395c-11,-96 -118,-138 -108,1l0 414c-1,20 -12,31 -35,31l-203 0c-30,-2 -48,-15 -49,-43z"/>
  </g>
 </g>
</svg>
