<?xml version="1.0" encoding="UTF-8" standalone="no"?>
<svg
   xmlns:dc="http://purl.org/dc/elements/1.1/"
   xmlns:cc="http://creativecommons.org/ns#"
   xmlns:rdf="http://www.w3.org/1999/02/22-rdf-syntax-ns#"
   xmlns:svg="http://www.w3.org/2000/svg"
   xmlns="http://www.w3.org/2000/svg"
   xmlns:sodipodi="http://sodipodi.sourceforge.net/DTD/sodipodi-0.dtd"
   xmlns:inkscape="http://www.inkscape.org/namespaces/inkscape"
   inkscape:version="1.0 (4035a4f, 2020-05-01)"
   sodipodi:docname="w3.svg"
   id="svg841"
   viewBox="0 0 476.17383 369.94028"
   height="369.94028"
   width="476.17383"
   version="1.1">
  <metadata
     id="metadata847">
    <rdf:RDF>
      <cc:Work
         rdf:about="">
        <dc:format>image/svg+xml</dc:format>
        <dc:type
           rdf:resource="http://purl.org/dc/dcmitype/StillImage" />
      </cc:Work>
    </rdf:RDF>
  </metadata>
  <defs
     id="defs845" />
  <sodipodi:namedview
     inkscape:current-layer="svg841"
     inkscape:window-maximized="1"
     inkscape:window-y="23"
     inkscape:window-x="0"
     inkscape:cy="269.48762"
     inkscape:cx="188.64804"
     inkscape:zoom="0.5772864"
     showgrid="false"
     id="namedview843"
     inkscape:window-height="980"
     inkscape:window-width="1920"
     inkscape:pageshadow="2"
     inkscape:pageopacity="0"
     guidetolerance="10"
     gridtolerance="10"
     objecttolerance="10"
     borderopacity="1"
     bordercolor="#666666"
     pagecolor="#ffffff" />
  <g
     transform="translate(-17.92,-71.024)"
     id="g833" />
  <path
     id="path835"
     fill="#000000"
     d="M 109.568,198.749 60.969,0.799 0,0.451 3.175,9.78 l 83.753,306.995 11.838,43.52 h 27.023 L 136.715,316.201 172.75,170.608 151.614,79.452 146.822,62.75 110.972,200.796 Z" />
  <path
     id="path837"
     fill="#000000"
     d="m 192.522,90.583 -44.636,-11.049 24.863,91.075 z" />
  <path
     id="path839"
     fill="#000000"
     d="M 235.643,194.612 185.641,0.799 125.665,0 l 2.59,7.434 19.641,72.09 24.863,91.075 39.239,143.872 12.472,45.824 h 25.241 l 11.961,-46.162 66.806,-257.3 65.024,-0.543 -74.219,132.065 39.946,3.318 c 1.894,0.185 49.971,5.253 61.584,45.496 8.817,30.464 2.775,57.385 -16.077,72.11 -14.428,11.223 -33.382,12.36 -49.5,2.98 -13.538,-7.895 -15.637,-16.691 -19.19,-31.293 -0.553,-2.263 -1.106,-4.608 -1.741,-6.994 l -49.756,13.138 c 0.543,1.874 0.993,3.861 1.505,6 4.311,17.776 10.793,44.667 43.213,63.56 34.181,19.906 76.196,17.244 107.09,-6.82 35.502,-27.678 48.538,-76.329 33.925,-126.935 -12.298,-42.66 -44.319,-63.386 -70.134,-73.4 0,0 -19.292,-7.475 0,0 L 463.533,36.711 461.659,0.81 288.357,1.466 237.004,196.671 Z" />
</svg>
